<svg width="199" height="34" viewBox="0 0 199 34" fill="none" xmlns="http://www.w3.org/2000/svg">
<path d="M24.3312 12.3961L24.3445 12.3695C24.3357 12.3784 24.3312 12.3872 24.3312 12.3961ZM22.1531 25H24.7031V11.4797C24.7031 10.913 24.4375 10.5234 23.9062 10.3109C23.375 10.0896 22.9102 10.187 22.5117 10.6031L12.3516 21.0422L2.19141 10.6031C1.78411 10.187 1.31927 10.0896 0.796875 10.3109C0.265625 10.5234 0 10.913 0 11.4797V25H2.55V14.6273L11.4352 23.7648C11.6831 24.0216 11.9885 24.15 12.3516 24.15C12.7057 24.15 13.0112 24.0216 13.268 23.7648L22.1531 14.6273V25ZM77.2437 12.3961L77.257 12.3695C77.2482 12.3784 77.2437 12.3872 77.2437 12.3961ZM75.0656 25H77.6156V11.4797C77.6156 10.913 77.35 10.5234 76.8187 10.3109C76.2875 10.0896 75.8226 10.187 75.4242 10.6031L65.2641 21.0422L55.1039 10.6031C54.6966 10.187 54.2318 10.0896 53.7094 10.3109C53.1781 10.5234 52.9125 10.913 52.9125 11.4797V25H55.4625V14.6273L64.3476 23.7648C64.5956 24.0216 64.901 24.15 65.2641 24.15C65.6182 24.15 65.9237 24.0216 66.1805 23.7648L75.0656 14.6273V25ZM103.235 14.2023C103.235 13.1044 102.846 12.1659 102.066 11.3867C101.287 10.5987 100.344 10.2047 99.2375 10.2047H83.6055C82.4987 10.2047 81.5557 10.5987 80.7765 11.3867C79.9974 12.1659 79.6078 13.1044 79.6078 14.2023V21.0023C79.6078 22.1091 79.9974 23.0521 80.7765 23.8313C81.5557 24.6104 82.4987 25 83.6055 25H99.2375C100.344 25 101.287 24.6104 102.066 23.8313C102.846 23.0521 103.235 22.1091 103.235 21.0023V14.2023ZM100.685 21.0023C100.685 21.4008 100.543 21.7417 100.26 22.025C99.9768 22.3083 99.6359 22.45 99.2375 22.45H83.6055C83.207 22.45 82.8661 22.3083 82.5828 22.025C82.2995 21.7417 82.1578 21.4008 82.1578 21.0023V14.2023C82.1578 13.8039 82.2995 13.463 82.5828 13.1797C82.8661 12.8964 83.207 12.7547 83.6055 12.7547H99.2375C99.6359 12.7547 99.9768 12.8964 100.26 13.1797C100.543 13.463 100.685 13.8039 100.685 14.2023V21.0023ZM107.791 17.7484V13.2992L107.804 13.2063C107.813 13.1354 107.835 13.069 107.87 13.007C107.959 12.8388 108.136 12.7547 108.402 12.7547H124.166C124.255 12.7635 124.348 12.7724 124.445 12.7813C124.56 12.7901 124.68 12.8078 124.804 12.8344C125.114 12.9052 125.388 13.0115 125.627 13.1531C126.318 13.5781 126.663 14.2776 126.663 15.2516C126.663 15.3401 126.654 15.4331 126.637 15.5305C126.628 15.6456 126.61 15.7651 126.584 15.8891C126.522 16.199 126.415 16.4734 126.265 16.7125C125.84 17.4031 125.14 17.7484 124.166 17.7484H107.791ZM122.626 20.2984L123.396 21.1219L126.451 24.3492L127.327 25.2656L129.173 23.5125L128.297 22.5961L125.893 20.0461C126.761 19.7716 127.487 19.2669 128.071 18.532C128.833 17.5758 129.213 16.4823 129.213 15.2516C129.213 13.5781 128.624 12.2766 127.447 11.3469C126.491 10.5854 125.397 10.2047 124.166 10.2047H108.402C107.631 10.2047 106.945 10.4438 106.343 10.9219C105.608 11.5063 105.241 12.3208 105.241 13.3656V25H107.791V20.2984H122.626ZM131.219 25H133.769V10.2313H131.219V25ZM148.006 25H150.556V12.7547H162.788V10.2047H135.761V12.7547H148.006V25ZM179.018 25H181.568V19.8867L195.805 11.9844L194.557 9.75313L180.293 17.682L166.029 9.75313L164.794 11.9844L179.018 19.8734V25Z" fill="white"/>
<path d="M50.9203 18.9703V16.4203H29.2453V14.2023C29.2453 13.8039 29.387 13.463 29.6703 13.1797C29.9536 12.8964 30.2945 12.7547 30.693 12.7547H50.9203V10.2047H30.693C29.5862 10.2047 28.6432 10.5987 27.8641 11.3867C27.0849 12.1659 26.6953 13.1044 26.6953 14.2023V21.0023C26.6953 22.1091 27.0849 23.0521 27.8641 23.8313C28.6432 24.6104 29.5862 25 30.693 25H50.9203V22.45H30.693C30.2945 22.45 29.9536 22.3083 29.6703 22.025C29.387 21.7417 29.2453 21.4008 29.2453 21.0023V18.9703H50.9203Z" fill="#EF8C42"/>
<rect x="90.5076" y="7.58752" width="2.16785" height="9.75531" rx="0.541962" fill="white"/>
<rect x="97.0112" y="15.7169" width="2.16785" height="6.50354" rx="0.541962" transform="rotate(90 97.0112 15.7169)" fill="white"/>
</svg>
