<svg width="1440" height="1025" viewBox="0 0 1440 1025" fill="none" xmlns="http://www.w3.org/2000/svg">
<ellipse rx="204.125" ry="217.627" transform="matrix(4.37114e-08 1 1 -4.37114e-08 1223.37 278.485)" fill="url(#paint0_radial)" fill-opacity="0.15"/>
<ellipse rx="241.305" ry="257.266" transform="matrix(4.37114e-08 1 1 -4.37114e-08 257.266 241.305)" fill="url(#paint1_radial)" fill-opacity="0.3"/>
<ellipse rx="124.662" ry="132.908" transform="matrix(4.37114e-08 1 1 -4.37114e-08 554.171 764.74)" fill="url(#paint2_radial)" fill-opacity="0.25"/>
<ellipse rx="124.662" ry="132.908" transform="matrix(4.37114e-08 1 1 -4.37114e-08 976.989 306.917)" fill="url(#paint3_radial)" fill-opacity="0.25"/>
<ellipse rx="230.37" ry="245.607" transform="matrix(4.37114e-08 1 1 -4.37114e-08 1047.72 657.574)" fill="url(#paint4_radial)" fill-opacity="0.25"/>
<ellipse rx="53.9474" ry="57.5156" transform="matrix(4.37114e-08 1 1 -4.37114e-08 348.203 310.562)" fill="url(#paint5_radial)" fill-opacity="0.4"/>
<ellipse rx="21.1415" ry="22.5399" transform="matrix(4.37114e-08 1 1 -4.37114e-08 406.496 277.756)" fill="url(#paint6_radial)" fill-opacity="0.4"/>
<ellipse rx="21.1415" ry="22.5399" transform="matrix(4.37114e-08 1 1 -4.37114e-08 889.938 734.122)" fill="url(#paint7_radial)" fill-opacity="0.4"/>
<ellipse rx="21.1415" ry="22.5399" transform="matrix(4.37114e-08 1 1 -4.37114e-08 1292.55 378.361)" fill="url(#paint8_radial)" fill-opacity="0.15"/>
<ellipse rx="21.1415" ry="22.5399" transform="matrix(4.37114e-08 1 1 -4.37114e-08 1046.94 263.176)" fill="url(#paint9_radial)" fill-opacity="0.4"/>
<ellipse rx="21.1415" ry="22.5399" transform="matrix(4.37114e-08 1 1 -4.37114e-08 451.575 668.51)" fill="url(#paint10_radial)" fill-opacity="0.15"/>
<ellipse rx="50.3023" ry="53.6295" transform="matrix(4.37114e-08 1 1 -4.37114e-08 408.05 627.685)" fill="url(#paint11_radial)" fill-opacity="0.2"/>
<ellipse rx="174.235" ry="185.76" transform="matrix(4.37114e-08 1 1 -4.37114e-08 770.243 850.764)" fill="url(#paint12_radial)" fill-opacity="0.15"/>
<defs>
<radialGradient id="paint0_radial" cx="0" cy="0" r="1" gradientUnits="userSpaceOnUse" gradientTransform="translate(204.125 217.627) rotate(90) scale(217.627 204.125)">
<stop stop-color="#FFE27A"/>
<stop offset="1" stop-color="#FFE27A" stop-opacity="0"/>
</radialGradient>
<radialGradient id="paint1_radial" cx="0" cy="0" r="1" gradientUnits="userSpaceOnUse" gradientTransform="translate(241.305 257.266) rotate(90) scale(195.864 183.713)">
<stop stop-color="#EF8C42"/>
<stop offset="1" stop-color="#FFBA7A" stop-opacity="0"/>
</radialGradient>
<radialGradient id="paint2_radial" cx="0" cy="0" r="1" gradientUnits="userSpaceOnUse" gradientTransform="translate(124.662 132.908) rotate(90) scale(101.187 94.909)">
<stop stop-color="#EF8C42"/>
<stop offset="1" stop-color="#FFBA7A" stop-opacity="0"/>
</radialGradient>
<radialGradient id="paint3_radial" cx="0" cy="0" r="1" gradientUnits="userSpaceOnUse" gradientTransform="translate(124.662 132.908) rotate(90) scale(101.187 94.909)">
<stop stop-color="#EF8C42"/>
<stop offset="1" stop-color="#FFBA7A" stop-opacity="0"/>
</radialGradient>
<radialGradient id="paint4_radial" cx="0" cy="0" r="1" gradientUnits="userSpaceOnUse" gradientTransform="translate(230.37 245.607) rotate(90) scale(186.988 175.387)">
<stop stop-color="#8F9CBE"/>
<stop offset="1" stop-color="#416ABA" stop-opacity="0"/>
</radialGradient>
<radialGradient id="paint5_radial" cx="0" cy="0" r="1" gradientUnits="userSpaceOnUse" gradientTransform="translate(53.9474 57.5156) rotate(90) scale(43.7883 41.0717)">
<stop stop-color="#8F9CBE"/>
<stop offset="1" stop-color="#416ABA" stop-opacity="0"/>
</radialGradient>
<radialGradient id="paint6_radial" cx="0" cy="0" r="1" gradientUnits="userSpaceOnUse" gradientTransform="translate(21.1415 22.5399) rotate(90) scale(17.1603 16.0957)">
<stop stop-color="#8F9CBE"/>
<stop offset="1" stop-color="#416ABA" stop-opacity="0"/>
</radialGradient>
<radialGradient id="paint7_radial" cx="0" cy="0" r="1" gradientUnits="userSpaceOnUse" gradientTransform="translate(21.1415 22.5399) rotate(90) scale(17.1603 16.0957)">
<stop stop-color="#8F9CBE"/>
<stop offset="1" stop-color="#416ABA" stop-opacity="0"/>
</radialGradient>
<radialGradient id="paint8_radial" cx="0" cy="0" r="1" gradientUnits="userSpaceOnUse" gradientTransform="translate(21.1415 22.5399) rotate(90) scale(17.1603 16.0957)">
<stop stop-color="#8F9CBE"/>
<stop offset="1" stop-color="#416ABA" stop-opacity="0"/>
</radialGradient>
<radialGradient id="paint9_radial" cx="0" cy="0" r="1" gradientUnits="userSpaceOnUse" gradientTransform="translate(21.1415 22.5399) rotate(90) scale(17.1603 16.0957)">
<stop stop-color="#8F9CBE"/>
<stop offset="1" stop-color="#416ABA" stop-opacity="0"/>
</radialGradient>
<radialGradient id="paint10_radial" cx="0" cy="0" r="1" gradientUnits="userSpaceOnUse" gradientTransform="translate(21.1415 22.5399) rotate(90) scale(17.1603 16.0957)">
<stop stop-color="#8F9CBE"/>
<stop offset="1" stop-color="#416ABA" stop-opacity="0"/>
</radialGradient>
<radialGradient id="paint11_radial" cx="0" cy="0" r="1" gradientUnits="userSpaceOnUse" gradientTransform="translate(50.3023 53.6295) rotate(90) scale(40.8297 38.2966)">
<stop stop-color="#8F9CBE"/>
<stop offset="1" stop-color="#416ABA" stop-opacity="0"/>
</radialGradient>
<radialGradient id="paint12_radial" cx="0" cy="0" r="1" gradientUnits="userSpaceOnUse" gradientTransform="translate(174.235 185.76) rotate(90) scale(185.76 174.235)">
<stop stop-color="white"/>
<stop offset="1" stop-color="white" stop-opacity="0"/>
</radialGradient>
</defs>
</svg>
